<svg xmlns="http://www.w3.org/2000/svg" viewBox="0 0 145.32 145.32"><defs><style>.cls-1{fill:#0266c1;}</style></defs><g id="Capa_2" data-name="Capa 2"><g id="Capa_2-2" data-name="Capa 2"><path class="cls-1" d="M56,145.32l-3.63-22.88A48.26,48.26,0,0,1,45.05,119a49.43,49.43,0,0,1-6.72-4.54l-21.44,9.81L0,94.46,19.62,80.11a22.76,22.76,0,0,1-.46-3.72c-.06-1.4-.09-2.64-.09-3.73s0-2.33.09-3.72a22.89,22.89,0,0,1,.46-3.73L0,50.86,16.89,21.07l21.44,9.81a50.36,50.36,0,0,1,6.72-4.54,38,38,0,0,1,7.27-3.27L56,0H89.37L93,22.89a59.36,59.36,0,0,1,7.35,3.36A31.37,31.37,0,0,1,107,30.88l21.43-9.81,16.89,29.79-19.61,14a25.76,25.76,0,0,1,.45,3.91q.09,2.08.09,3.9c0,1.21,0,2.48-.09,3.82a25.47,25.47,0,0,1-.45,3.81l19.61,14.17-16.89,29.79L107,114.44a60,60,0,0,1-6.64,4.64A31.9,31.9,0,0,1,93,122.44l-3.64,22.88Zm16.71-49A23.59,23.59,0,0,0,96.28,72.66,23.58,23.58,0,0,0,72.66,49.05,23.56,23.56,0,0,0,49.05,72.66,23.58,23.58,0,0,0,72.66,96.28Zm0-10.9a12.72,12.72,0,0,1-9-21.71,12.71,12.71,0,1,1,18,18A12.22,12.22,0,0,1,72.66,85.38Zm-8,49h16l2.55-20.34a42.86,42.86,0,0,0,11.35-4.54,46.66,46.66,0,0,0,9.72-7.45l19.26,8.36,7.26-13.08L113.72,84.83c.48-2.06.87-4.08,1.18-6.08a41,41,0,0,0,.45-6.09,50.78,50.78,0,0,0-.36-6.08,38,38,0,0,0-1.27-6.09L130.79,48l-7.26-13.08-19.26,8.35a40.66,40.66,0,0,0-9.45-7.9A30.66,30.66,0,0,0,83.2,31.24L80.65,10.9h-16L62.13,31.24A38.76,38.76,0,0,0,50.59,35.6a40.45,40.45,0,0,0-9.54,7.63L21.8,34.88,14.53,48,31.61,60.49q-.73,3.09-1.18,6.09a40.48,40.48,0,0,0,0,12.17c.3,2,.69,4,1.18,6.08L14.53,97.37l7.27,13.08,19.25-8.36a46.66,46.66,0,0,0,9.72,7.45,42.93,42.93,0,0,0,11.36,4.54Z"/></g></g></svg>