<svg xmlns="http://www.w3.org/2000/svg" viewBox="0 0 145.87 145.87"><defs><style>.cls-1{fill:#0266c1;}</style></defs><g id="Capa_2" data-name="Capa 2"><g id="Capa_2-2" data-name="Capa 2"><path class="cls-1" d="M137,145.87,83.67,92.58a44.53,44.53,0,0,1-14.18,8.21,50.08,50.08,0,0,1-17.22,2.94q-21.89,0-37.08-15.2A50,50,0,0,1,0,51.86,50,50,0,0,1,15.19,15.19,50.2,50.2,0,0,1,52.07,0,49.62,49.62,0,0,1,88.63,15.19a50.13,50.13,0,0,1,15.1,36.67,50.57,50.57,0,0,1-2.84,16.82,51.37,51.37,0,0,1-8.51,15.19L145.87,137ZM52.07,91.57A37.87,37.87,0,0,0,80,79.92,38.4,38.4,0,0,0,91.57,51.86,38.42,38.42,0,0,0,80,23.8,37.9,37.9,0,0,0,52.07,12.16,38.51,38.51,0,0,0,23.8,23.8,38.27,38.27,0,0,0,12.16,51.86,38.25,38.25,0,0,0,23.8,79.92,38.49,38.49,0,0,0,52.07,91.57Z"/></g></g></svg>